<?xml version="1.0" encoding="utf-8"?>
<?xml-stylesheet type="text/xsl" href="rss1.xsl"?>
<rss version="2.0" xmlns:atom="http://www.w3.org/2005/Atom" xmlns:content="http://purl.org/rss/1.0/modules/content/" xmlns:dc="http://purl.org/dc/elements/1.1/" xmlns:media="http://search.yahoo.com/mrss/">
<channel>
 <title>Getty</title>
 <link>http://www.gettyimg.com/</link>
 <atom:link href="http://www.gettyimg.com/" rel="self" type="application/rss+xml" />

 
                <item>
                <title><![CDATA[【Singles (lossless)】FLAC - Thriller 25 - Limited Japanese Single Collection [EICP 945-951] (2008)]]></title>
                <link><![CDATA[https://sharemania.us/threads/thriller-25-limited-japanese-single-collection-eicp-945-951-2008.239351/]]></link>
                <description><![CDATA[<article>
<blockquote class="messageText SelectQuoteContainer ugc baseHtml">
<img src="https://i.discogs.com/1bambj8G3XPhkCBqstXYUkvIOshE0R_XVbCJYVSw0-c/rs:fit/g:sm/q:90/h:580/w:600/czM6Ly9kaXNjb2dz/LWRhdGFiYXNlLWlt/YWdlcy9SLTI4MTM2/NzYtMTM2MTgwNTgz/OC02Njg2LmpwZWc.jpeg" class="bbCodeImage LbImage" alt="[​IMG]" data-url="https://i.discogs.com/1bambj8G3XPhkCBqstXYUkvIOshE0R_XVbCJYVSw0-c/rs:fit/g:sm/q:90/h:580/w:600/czM6Ly9kaXNjb2dz/LWRhdGFiYXNlLWlt/YWdlcy9SLTI4MTM2/NzYtMTM2MTgwNTgz/OC02Njg2LmpwZWc.jpeg" style=""> <br>
<a href="https://www.discogs.com/de/release/2813676-Michael-Jackson-Thriller-25-Limited-Japanese-Single-Collection" target="_blank" class="externalLink" rel="nofollow">https://www.discogs.com/de/release/...hriller-25-Limited-Japanese-Single-Collection</a><br>
<br>
<b>Disc 1: The Girl is Mine<br>
<br>
<img src="https://i.discogs.com/uDUC5QI0MW0nAG9QuUUCAAfzdIGZli2OMPT9pqhbkfw/rs:fit/g:sm/q:90/h:371/w:375/czM6Ly9kaXNjb2dz/LWRhdGFiYXNlLWlt/YWdlcy9SLTI4MTM2/NzYtMTU2NjI2Njc1/OS01OTQzLmpwZWc.jpeg" class="bbCodeImage LbImage" alt="[​IMG]" data-url="https://i.discogs.com/uDUC5QI0MW0nAG9QuUUCAAfzdIGZli2OMPT9pqhbkfw/rs:fit/g:sm/q:90/h:371/w:375/czM6Ly9kaXNjb2dz/LWRhdGFiYXNlLWlt/YWdlcy9SLTI4MTM2/NzYtMTU2NjI2Njc1/OS01OTQzLmpwZWc.jpeg" style=""> </b><br>
<br>
1. The Girl Is Mine (with Paul McCartney) (3:41)<br>
2. Can't Get Outta The Rain (4:08)<br>
<br>
<div class="ToggleTriggerAnchor bbCodeSpoilerContainer">
<button type="button" class="button bbCodeSpoilerButton ToggleTrigger Tooltip JsOnly" data-target="> .SpoilerTarget"><span>Spoiler: <span class="SpoilerTitle">Log Disc 1</span></span></button>
<div class="SpoilerTarget bbCodeSpoilerText">X Lossless Decoder version 20230627 (156.1)<br>
<br>
XLD extraction logfile from 2024-02-20 22:21:49 +0100<br>
<br>
Michael Jackson / Thriller 25: Limited Japanese Single Collection [EICP 945-951]<br>
<br>
Used drive : Slimtype eTAU108 3 (revision AL02)<br>
Media type : Pressed CD<br>
<br>
Ripper mode : XLD Secure Ripper<br>
Disable audio cache : OK for the drive with a cache less than 1375KiB<br>
Make use of C2 pointers : NO<br>
Read offset correction : 6<br>
Max retry count : 20<br>
Gap status : Analyzed, Appended (except HTOA)<br>
<br>
TOC of the extracted CD<br>
Track | Start | Length | Start sector | End sector <br>
---------------------------------------------------------<br>
1 | 00:00:00 | 03:44:50 | 0 | 16849 <br>
2 | 03:44:50 | 04:04:49 | 16850 | 35198 <br>
<br>
AccurateRip Summary (DiscID: 0000cb51-00022022-0c01d502)<br>
Track 01 : OK (v2, confidence 5/5)<br>
Track 02 : OK (v2, confidence 5/5)<br>
-&gt;All tracks accurately ripped.<br>
<br>
All Tracks<br>
Statistics<br>
Read error : 0<br>
Jitter error (maybe fixed) : 0<br>
Retry sector count : 0<br>
Damaged sector count : 0<br>
<br>
Track 01<br>
Filename : /Thriller 25 - Limited Japanese Single Collection [EICP 945-951] (2008)/Disc 1 - The Girl Is Mine/01 Michael Jackson - The Girl Is Mine (with Paul McCartney).flac<br>
Pre-gap length : 00:02:00<br>
<br>
CRC32 hash : 6231151C<br>
CRC32 hash (skip zero) : 062BAE3D<br>
AccurateRip v1 signature : 5BA579F3<br>
AccurateRip v2 signature : BDDD0697<br>
-&gt;Accurately ripped (v2, confidence 5/5)<br>
Statistics<br>
Read error : 0<br>
Jitter error (maybe fixed) : 0<br>
Retry sector count : 0<br>
Damaged sector count : 0<br>
<br>
Track 02<br>
Filename : /Thriller 25 - Limited Japanese Single Collection [EICP 945-951] (2008)/Disc 1 - The Girl Is Mine/02 Michael Jackson - Can't Get Outta The Rain.flac<br>
Pre-gap length : 00:03:08<br>
<br>
CRC32 hash : 41A4D465<br>
CRC32 hash (skip zero) : A5C5423B<br>
AccurateRip v1 signature : 1061957B<br>
AccurateRip v2 signature : 5F0615C1<br>
-&gt;Accurately ripped (v2, confidence 5/5)<br>
Statistics<br>
Read error : 0<br>
Jitter error (maybe fixed) : 0<br>
Retry sector count : 0<br>
Damaged sector count : 0<br>
<br>
No errors occurred<br>
<br>
End of status report</div>
</div><br>
<b>Disc 2: Billie Jean</b><br>
<br>
<img src="https://i.discogs.com/IQbqYnUY1TINdpya9J6GLbbXJSG0DdybQ7VmQjlZbEQ/rs:fit/g:sm/q:90/h:368/w:364/czM6Ly9kaXNjb2dz/LWRhdGFiYXNlLWlt/YWdlcy9SLTI4MTM2/NzYtMTU2NjI2Njgz/MC00MTQ5LmpwZWc.jpeg" class="bbCodeImage LbImage" alt="[​IMG]" data-url="https://i.discogs.com/IQbqYnUY1TINdpya9J6GLbbXJSG0DdybQ7VmQjlZbEQ/rs:fit/g:sm/q:90/h:368/w:364/czM6Ly9kaXNjb2dz/LWRhdGFiYXNlLWlt/YWdlcy9SLTI4MTM2/NzYtMTU2NjI2Njgz/MC00MTQ5LmpwZWc.jpeg" style=""> <br>
<br>
1. Billie Jean - US Single Version (4:53)<br>
2. It's The Falling In Love (3:48)<br>
<br>
<div class="ToggleTriggerAnchor bbCodeSpoilerContainer">
<button type="button" class="button bbCodeSpoilerButton ToggleTrigger Tooltip JsOnly" data-target="> .SpoilerTarget"><span>Spoiler: <span class="SpoilerTitle">Log Disc 2</span></span></button>
<div class="SpoilerTarget bbCodeSpoilerText">X Lossless Decoder version 20230627 (156.1)<br>
<br>
XLD extraction logfile from 2024-02-20 22:28:37 +0100<br>
<br>
Michael Jackson / Thriller 25: Limited Japanese Single Collection<br>
<br>
Used drive : Slimtype eTAU108 3 (revision AL02)<br>
Media type : Pressed CD<br>
<br>
Ripper mode : XLD Secure Ripper<br>
Disable audio cache : OK for the drive with a cache less than 1375KiB<br>
Make use of C2 pointers : NO<br>
Read offset correction : 6<br>
Max retry count : 20<br>
Gap status : Analyzed, Appended (except HTOA)<br>
<br>
TOC of the extracted CD<br>
Track | Start | Length | Start sector | End sector <br>
---------------------------------------------------------<br>
1 | 00:00:00 | 04:54:52 | 0 | 22101 <br>
2 | 04:54:52 | 03:49:18 | 22102 | 39294 <br>
<br>
AccurateRip Summary (DiscID: 0000efd5-0002792a-13020b02)<br>
Track 01 : OK (v2, confidence 5/5)<br>
Track 02 : OK (v2, confidence 5/5)<br>
-&gt;All tracks accurately ripped.<br>
<br>
All Tracks<br>
Statistics<br>
Read error : 0<br>
Jitter error (maybe fixed) : 0<br>
Retry sector count : 0<br>
Damaged sector count : 0<br>
<br>
Track 01<br>
Filename : /Thriller 25 - Limited Japanese Single Collection [EICP 945-951] (2008)/Disc 2 - Billie Jean/01 Michael Jackson - Billie Jean - US Single Version.flac<br>
Pre-gap length : 00:02:00<br>
<br>
CRC32 hash : AB507902<br>
CRC32 hash (skip zero) : 47ACFB73<br>
AccurateRip v1 signature : 1DEB3E8D<br>
AccurateRip v2 signature : 18A13D61<br>
-&gt;Accurately ripped (v2, confidence 5/5)<br>
Statistics<br>
Read error : 0<br>
Jitter error (maybe fixed) : 0<br>
Retry sector count : 0<br>
Damaged sector count : 0<br>
<br>
Track 02<br>
Filename : /Thriller 25 - Limited Japanese Single Collection [EICP 945-951] (2008)/Disc 2 - Billie Jean/02 Michael Jackson - It's The Falling In Love.flac<br>
Pre-gap length : 00:01:16<br>
<br>
CRC32 hash : 79708AFC<br>
CRC32 hash (skip zero) : 3AA4801E<br>
AccurateRip v1 signature : 0F36B5FF<br>
AccurateRip v2 signature : FF946DD8<br>
-&gt;Accurately ripped (v2, confidence 5/5)<br>
Statistics<br>
Read error : 0<br>
Jitter error (maybe fixed) : 0<br>
Retry sector count : 0<br>
Damaged sector count : 0<br>
<br>
No errors occurred<br>
<br>
End of status report</div>
</div><br>
<b>Disc 3: Beat It<br>
<br>
<img src="https://i.discogs.com/fe6OgMwfiyjUybQhlYVozATAHUbV48nqT28Qq9uejp0/rs:fit/g:sm/q:90/h:370/w:370/czM6Ly9kaXNjb2dz/LWRhdGFiYXNlLWlt/YWdlcy9SLTI4MTM2/NzYtMTU2NjI2Njg0/MS0zNTkyLmpwZWc.jpeg" class="bbCodeImage LbImage" alt="[​IMG]" data-url="https://i.discogs.com/fe6OgMwfiyjUybQhlYVozATAHUbV48nqT28Qq9uejp0/rs:fit/g:sm/q:90/h:370/w:370/czM6Ly9kaXNjb2dz/LWRhdGFiYXNlLWlt/YWdlcy9SLTI4MTM2/NzYtMTU2NjI2Njg0/MS0zNTkyLmpwZWc.jpeg" style=""> </b><br>
<br>
1. Beat It (4:17)<br>
2. Get On The Floor (4:39)<br>
<br>
<div class="ToggleTriggerAnchor bbCodeSpoilerContainer">
<button type="button" class="button bbCodeSpoilerButton ToggleTrigger Tooltip JsOnly" data-target="> .SpoilerTarget"><span>Spoiler: <span class="SpoilerTitle">Log Disc 3</span></span></button>
<div class="SpoilerTarget bbCodeSpoilerText">X Lossless Decoder version 20230627 (156.1)<br>
<br>
XLD extraction logfile from 2024-02-20 22:35:58 +0100<br>
<br>
Michael Jackson / Thriller 25 - Limited Japanese Single Collection<br>
<br>
Used drive : Slimtype eTAU108 3 (revision AL02)<br>
Media type : Pressed CD<br>
<br>
Ripper mode : XLD Secure Ripper<br>
Disable audio cache : OK for the drive with a cache less than 1375KiB<br>
Make use of C2 pointers : NO<br>
Read offset correction : 6<br>
Max retry count : 20<br>
Gap status : Analyzed, Appended (except HTOA)<br>
<br>
TOC of the extracted CD<br>
Track | Start | Length | Start sector | End sector <br>
---------------------------------------------------------<br>
1 | 00:00:00 | 04:19:06 | 0 | 19430 <br>
2 | 04:19:06 | 04:40:20 | 19431 | 40450 <br>
<br>
AccurateRip Summary (DiscID: 0000e9ea-000271d8-0b021b02)<br>
Track 01 : OK (v2, confidence 5/5)<br>
Track 02 : OK (v2, confidence 5/5)<br>
-&gt;All tracks accurately ripped.<br>
<br>
All Tracks<br>
Statistics<br>
Read error : 0<br>
Jitter error (maybe fixed) : 0<br>
Retry sector count : 0<br>
Damaged sector count : 0<br>
<br>
Track 01<br>
Filename : /Thriller 25 - Limited Japanese Single Collection [EICP 945-951] (2008)/Disc 3 - Beat It/01 Michael Jackson - Beat It .flac<br>
Pre-gap length : 00:02:00<br>
<br>
CRC32 hash : 8C4B068E<br>
CRC32 hash (skip zero) : 72902390<br>
AccurateRip v1 signature : 494DBF6C<br>
AccurateRip v2 signature : E8C23B60<br>
-&gt;Accurately ripped (v2, confidence 5/5)<br>
Statistics<br>
Read error : 0<br>
Jitter error (maybe fixed) : 0<br>
Retry sector count : 0<br>
Damaged sector count : 0<br>
<br>
Track 02<br>
Filename : /Thriller 25 - Limited Japanese Single Collection [EICP 945-951] (2008)/Disc 3 - Beat It/02 Michael Jackson - Get On The Floor - Remix.flac<br>
Pre-gap length : 00:01:06<br>
<br>
CRC32 hash : 32FAF44D<br>
CRC32 hash (skip zero) : BA11E03C<br>
AccurateRip v1 signature : 9E8507AA<br>
AccurateRip v2 signature : 125EA9C8<br>
-&gt;Accurately ripped (v2, confidence 5/5)<br>
Statistics<br>
Read error : 0<br>
Jitter error (maybe fixed) : 0<br>
Retry sector count : 0<br>
Damaged sector count : 0<br>
<br>
No errors occurred<br>
<br>
End of status report</div>
</div><br>
<b>Disc 4: Wanna Be Startin' Somethin'<br>
<br>
<img src="https://i.discogs.com/rv1ZCOD14yB5qwv7092PMTZQhUS_l-xz_cXS5jzV4wU/rs:fit/g:sm/q:90/h:369/w:369/czM6Ly9kaXNjb2dz/LWRhdGFiYXNlLWlt/YWdlcy9SLTI4MTM2/NzYtMTU2NjI2Njg1/Mi0xODQ5LmpwZWc.jpeg" class="bbCodeImage LbImage" alt="[​IMG]" data-url="https://i.discogs.com/rv1ZCOD14yB5qwv7092PMTZQhUS_l-xz_cXS5jzV4wU/rs:fit/g:sm/q:90/h:369/w:369/czM6Ly9kaXNjb2dz/LWRhdGFiYXNlLWlt/YWdlcy9SLTI4MTM2/NzYtMTU2NjI2Njg1/Mi0xODQ5LmpwZWc.jpeg" style=""> </b><br>
<br>
1. Wanna Be Startin' Somethin' - New 7" Edit (4:17)<br>
2. Wanna Be Startin' Somethin' - 7" Instrumental (4:17)<br>
<br>
<div class="ToggleTriggerAnchor bbCodeSpoilerContainer">
<button type="button" class="button bbCodeSpoilerButton ToggleTrigger Tooltip JsOnly" data-target="> .SpoilerTarget"><span>Spoiler: <span class="SpoilerTitle">Log Disc 4</span></span></button>
<div class="SpoilerTarget bbCodeSpoilerText">X Lossless Decoder version 20230627 (156.1)<br>
<br>
XLD extraction logfile from 2024-02-20 22:41:50 +0100<br>
<br>
Michael Jackson / Thriller 25 - Limited Japanese Single Collection [Disc 4]<br>
<br>
Used drive : Slimtype eTAU108 3 (revision AL02)<br>
Media type : Pressed CD<br>
<br>
Ripper mode : XLD Secure Ripper<br>
Disable audio cache : OK for the drive with a cache less than 1375KiB<br>
Make use of C2 pointers : NO<br>
Read offset correction : 6<br>
Max retry count : 20<br>
Gap status : Analyzed, Appended (except HTOA)<br>
<br>
TOC of the extracted CD<br>
Track | Start | Length | Start sector | End sector <br>
---------------------------------------------------------<br>
1 | 00:00:00 | 04:19:53 | 0 | 19477 <br>
2 | 04:19:53 | 04:20:39 | 19478 | 39016 <br>
<br>
AccurateRip Summary (DiscID: 0000e47f-00026168-0b020802)<br>
Track 01 : OK (v2, confidence 5/5)<br>
Track 02 : OK (v2, confidence 5/5)<br>
-&gt;All tracks accurately ripped.<br>
<br>
All Tracks<br>
Statistics<br>
Read error : 0<br>
Jitter error (maybe fixed) : 0<br>
Retry sector count : 0<br>
Damaged sector count : 0<br>
<br>
Track 01<br>
Filename : /Thriller 25 - Limited Japanese Single Collection [EICP 945-951] (2008)/Disc 4 - Wanna Be Startin' Somethin'/01 Michael Jackson - Wanna Be Startin' Somethin' - New Edit.flac<br>
Pre-gap length : 00:02:00<br>
<br>
CRC32 hash : DCAC58F0<br>
CRC32 hash (skip zero) : F5966D55<br>
AccurateRip v1 signature : DD178E68<br>
AccurateRip v2 signature : DA4B378F<br>
-&gt;Accurately ripped (v2, confidence 5/5)<br>
Statistics<br>
Read error : 0<br>
Jitter error (maybe fixed) : 0<br>
Retry sector count : 0<br>
Damaged sector count : 0<br>
<br>
Track 02<br>
Filename : /Thriller 25 - Limited Japanese Single Collection [EICP 945-951] (2008)/Disc 4 - Wanna Be Startin' Somethin'/02 Michael Jackson - Wanna Be Startin' Somethin' - 7" Instrumental.flac<br>
Pre-gap length : 00:02:14<br>
<br>
CRC32 hash : 8D07614E<br>
CRC32 hash (skip zero) : B247B46A<br>
AccurateRip v1 signature : C73F8046<br>
AccurateRip v2 signature : 77FB5588<br>
-&gt;Accurately ripped (v2, confidence 5/5)<br>
Statistics<br>
Read error : 0<br>
Jitter error (maybe fixed) : 0<br>
Retry sector count : 0<br>
Damaged sector count : 0<br>
<br>
No errors occurred<br>
<br>
End of status report</div>
</div><br>
<b>Disc 5: Human Nature<br>
<br>
<img src="https://i.discogs.com/7UITQ-c9DZBUUWHcSEZOCRa0MM1bmjmmx9vSSX_brSM/rs:fit/g:sm/q:90/h:368/w:369/czM6Ly9kaXNjb2dz/LWRhdGFiYXNlLWlt/YWdlcy9SLTI4MTM2/NzYtMTU2NjI2Njg2/NC01MDIxLmpwZWc.jpeg" class="bbCodeImage LbImage" alt="[​IMG]" data-url="https://i.discogs.com/7UITQ-c9DZBUUWHcSEZOCRa0MM1bmjmmx9vSSX_brSM/rs:fit/g:sm/q:90/h:368/w:369/czM6Ly9kaXNjb2dz/LWRhdGFiYXNlLWlt/YWdlcy9SLTI4MTM2/NzYtMTU2NjI2Njg2/NC01MDIxLmpwZWc.jpeg" style=""> </b><br>
<br>
1. Human Nature - New 7" Edit (3:45)<br>
2. Baby Be Mine (4:20)<br>
<br>
<div class="ToggleTriggerAnchor bbCodeSpoilerContainer">
<button type="button" class="button bbCodeSpoilerButton ToggleTrigger Tooltip JsOnly" data-target="> .SpoilerTarget"><span>Spoiler: <span class="SpoilerTitle">Log Disc 5</span></span></button>
<div class="SpoilerTarget bbCodeSpoilerText">X Lossless Decoder version 20230627 (156.1)<br>
<br>
XLD extraction logfile from 2024-02-20 22:47:15 +0100<br>
<br>
Michael Jackson / Thriller 25 - Limited Japanese Single Collection<br>
<br>
Used drive : Slimtype eTAU108 3 (revision AL02)<br>
Media type : Pressed CD<br>
<br>
Ripper mode : XLD Secure Ripper<br>
Disable audio cache : OK for the drive with a cache less than 1375KiB<br>
Make use of C2 pointers : NO<br>
Read offset correction : 6<br>
Max retry count : 20<br>
Gap status : Analyzed, Appended (except HTOA)<br>
<br>
TOC of the extracted CD<br>
Track | Start | Length | Start sector | End sector <br>
---------------------------------------------------------<br>
1 | 00:00:00 | 03:46:32 | 0 | 16981 <br>
2 | 03:46:32 | 04:21:31 | 16982 | 36587 <br>
<br>
AccurateRip Summary (DiscID: 0000d142-00023171-0e01e702)<br>
Track 01 : OK (v2, confidence 5/5)<br>
Track 02 : OK (v2, confidence 5/5)<br>
-&gt;All tracks accurately ripped.<br>
<br>
All Tracks<br>
Statistics<br>
Read error : 0<br>
Jitter error (maybe fixed) : 0<br>
Retry sector count : 0<br>
Damaged sector count : 0<br>
<br>
Track 01<br>
Filename : /Thriller 25 - Limited Japanese Single Collection [EICP 945-951] (2008)/Disc 5 - Human Nature/01 Michael Jackson - Human Nature - New Edit.flac<br>
Pre-gap length : 00:02:00<br>
<br>
CRC32 hash : D8B0A44C<br>
CRC32 hash (skip zero) : 71AA33CA<br>
AccurateRip v1 signature : A120BA86<br>
AccurateRip v2 signature : 991BD59D<br>
-&gt;Accurately ripped (v2, confidence 5/5)<br>
Statistics<br>
Read error : 0<br>
Jitter error (maybe fixed) : 0<br>
Retry sector count : 0<br>
Damaged sector count : 0<br>
<br>
Track 02<br>
Filename : /Thriller 25 - Limited Japanese Single Collection [EICP 945-951] (2008)/Disc 5 - Human Nature/02 Michael Jackson - Baby Be Mine.flac<br>
Pre-gap length : 00:01:37<br>
<br>
CRC32 hash : E1A85196<br>
CRC32 hash (skip zero) : 73BB4057<br>
AccurateRip v1 signature : C1CED775<br>
AccurateRip v2 signature : 1B47E4BD<br>
-&gt;Accurately ripped (v2, confidence 5/5)<br>
Statistics<br>
Read error : 0<br>
Jitter error (maybe fixed) : 0<br>
Retry sector count : 0<br>
Damaged sector count : 0<br>
<br>
No errors occurred<br>
<br>
End of status report</div>
</div><br>
<b>Disc 6: P.Y.T. (Pretty Young Thing)<br>
<br>
<img src="https://i.discogs.com/5nsKNcLni4t7yZpADGi145p9LDyQwgAFV0hCFmKM8no/rs:fit/g:sm/q:90/h:370/w:371/czM6Ly9kaXNjb2dz/LWRhdGFiYXNlLWlt/YWdlcy9SLTI4MTM2/NzYtMTU2NjI2Njg3/NC0yMjU3LmpwZWc.jpeg" class="bbCodeImage LbImage" alt="[​IMG]" data-url="https://i.discogs.com/5nsKNcLni4t7yZpADGi145p9LDyQwgAFV0hCFmKM8no/rs:fit/g:sm/q:90/h:370/w:371/czM6Ly9kaXNjb2dz/LWRhdGFiYXNlLWlt/YWdlcy9SLTI4MTM2/NzYtMTU2NjI2Njg3/NC0yMjU3LmpwZWc.jpeg" style=""> </b><br>
<br>
1. P.Y.T. (Pretty Young Thing) (4:00)<br>
2. Workin' Day And Night - Live (with The Jacksons) [Edit] (4:26)<br>
<br>
<div class="ToggleTriggerAnchor bbCodeSpoilerContainer">
<button type="button" class="button bbCodeSpoilerButton ToggleTrigger Tooltip JsOnly" data-target="> .SpoilerTarget"><span>Spoiler: <span class="SpoilerTitle">Log Disc 6</span></span></button>
<div class="SpoilerTarget bbCodeSpoilerText">X Lossless Decoder version 20230627 (156.1)<br>
<br>
XLD extraction logfile from 2024-02-20 23:47:17 +0100<br>
<br>
Michael Jackson / Thriller 25 - Limited Japanese Single Collection [EICP 945-951]<br>
<br>
Used drive : Slimtype eTAU108 3 (revision AL02)<br>
Media type : Pressed CD<br>
<br>
Ripper mode : XLD Secure Ripper<br>
Disable audio cache : OK for the drive with a cache less than 1375KiB<br>
Make use of C2 pointers : NO<br>
Read offset correction : 6<br>
Max retry count : 20<br>
Gap status : Analyzed, Appended (except HTOA)<br>
<br>
TOC of the extracted CD<br>
Track | Start | Length | Start sector | End sector <br>
---------------------------------------------------------<br>
1 | 00:00:00 | 04:02:59 | 0 | 18208 <br>
2 | 04:02:59 | 04:26:14 | 18209 | 38172 <br>
<br>
AccurateRip Summary (DiscID: 0000dc3e-00024d9a-0c01fc02)<br>
Track 01 : OK (v2, confidence 5/5)<br>
Track 02 : OK (v2, confidence 5/5)<br>
-&gt;All tracks accurately ripped.<br>
<br>
All Tracks<br>
Statistics<br>
Read error : 0<br>
Jitter error (maybe fixed) : 0<br>
Retry sector count : 0<br>
Damaged sector count : 0<br>
<br>
Track 01<br>
Filename : /Thriller 25 - Limited Japanese Single Collection [EICP 945-951] (2008)/01 P.Y.T. (Pretty Young Thing).flac<br>
Pre-gap length : 00:02:00<br>
<br>
CRC32 hash : C3E4FEDD<br>
CRC32 hash (skip zero) : A92E7EA4<br>
AccurateRip v1 signature : 8BEB3C5B<br>
AccurateRip v2 signature : FC757569<br>
-&gt;Accurately ripped (v2, confidence 5/5)<br>
Statistics<br>
Read error : 0<br>
Jitter error (maybe fixed) : 0<br>
Retry sector count : 0<br>
Damaged sector count : 0<br>
<br>
Track 02<br>
Filename : /Thriller 25 - Limited Japanese Single Collection [EICP 945-951] (2008)/02 Working Day And Night - Live (with The Jacksons).flac<br>
Pre-gap length : 00:04:10<br>
<br>
CRC32 hash : 3770DCF5<br>
CRC32 hash (skip zero) : 6CA473AE<br>
AccurateRip v1 signature : 9ADD11BE<br>
AccurateRip v2 signature : BAA4C1B6<br>
-&gt;Accurately ripped (v2, confidence 5/5)<br>
Statistics<br>
Read error : 0<br>
Jitter error (maybe fixed) : 0<br>
Retry sector count : 0<br>
Damaged sector count : 0<br>
<br>
No errors occurred<br>
<br>
End of status report</div>
</div><br>
<b>Disc 7: Thriller<br>
<br>
<img src="https://i.discogs.com/eicybGOQzxJG7VD0ikagUFFSaOXfxqTGfORIrErvDPQ/rs:fit/g:sm/q:90/h:371/w:368/czM6Ly9kaXNjb2dz/LWRhdGFiYXNlLWlt/YWdlcy9SLTI4MTM2/NzYtMTU2NjI2Njg4/Ny01NDk0LmpwZWc.jpeg" class="bbCodeImage LbImage" alt="[​IMG]" data-url="https://i.discogs.com/eicybGOQzxJG7VD0ikagUFFSaOXfxqTGfORIrErvDPQ/rs:fit/g:sm/q:90/h:371/w:368/czM6Ly9kaXNjb2dz/LWRhdGFiYXNlLWlt/YWdlcy9SLTI4MTM2/NzYtMTU2NjI2Njg4/Ny01NDk0LmpwZWc.jpeg" style=""> </b><br>
<br>
1. Thriller - Special Edit (4:39)<br>
2. Things I Do For You - Live (with The Jacksons) [Fade] (3:37)<br>
<br>
<div class="ToggleTriggerAnchor bbCodeSpoilerContainer">
<button type="button" class="button bbCodeSpoilerButton ToggleTrigger Tooltip JsOnly" data-target="> .SpoilerTarget"><span>Spoiler: <span class="SpoilerTitle">Log Disc 7</span></span></button>
<div class="SpoilerTarget bbCodeSpoilerText">X Lossless Decoder version 20230627 (156.1)<br>
<br>
XLD extraction logfile from 2024-02-20 23:01:52 +0100<br>
<br>
Michael Jackson / Thriller 25: Limited Japanese Single Collection [EICP 945-951]<br>
<br>
Used drive : Slimtype eTAU108 3 (revision AL02)<br>
Media type : Pressed CD<br>
<br>
Ripper mode : XLD Secure Ripper<br>
Disable audio cache : OK for the drive with a cache less than 1375KiB<br>
Make use of C2 pointers : NO<br>
Read offset correction : 6<br>
Max retry count : 20<br>
Gap status : Analyzed, Appended (except HTOA)<br>
<br>
TOC of the extracted CD<br>
Track | Start | Length | Start sector | End sector <br>
---------------------------------------------------------<br>
1 | 00:00:00 | 04:39:04 | 0 | 20928 <br>
2 | 04:39:04 | 03:38:14 | 20929 | 37292 <br>
<br>
AccurateRip Summary (DiscID: 0000e36e-0002588a-0d01f102)<br>
Track 01 : OK (v2, confidence 5/5)<br>
Track 02 : OK (v2, confidence 5/5)<br>
-&gt;All tracks accurately ripped.<br>
<br>
All Tracks<br>
Statistics<br>
Read error : 0<br>
Jitter error (maybe fixed) : 0<br>
Retry sector count : 0<br>
Damaged sector count : 0<br>
<br>
Track 01<br>
Filename : /Thriller 25 - Limited Japanese Single Collection [EICP 945-951] (2008)/Disc 7 - Thriller/01 Michael Jackson - Thriller - Special Edit.flac<br>
Pre-gap length : 00:02:00<br>
<br>
CRC32 hash : 4D3ADE6B<br>
CRC32 hash (skip zero) : 8CEE89D0<br>
AccurateRip v1 signature : 0A0496CE<br>
AccurateRip v2 signature : ED2B04F0<br>
-&gt;Accurately ripped (v2, confidence 5/5)<br>
Statistics<br>
Read error : 0<br>
Jitter error (maybe fixed) : 0<br>
Retry sector count : 0<br>
Damaged sector count : 0<br>
<br>
Track 02<br>
Filename : /Thriller 25 - Limited Japanese Single Collection [EICP 945-951] (2008)/Disc 7 - Thriller/02 Michael Jackson - Things I Do For You - Live (with The Jacksons).flac<br>
Pre-gap length : 00:02:13<br>
<br>
CRC32 hash : 53703384<br>
CRC32 hash (skip zero) : 4D10C404<br>
AccurateRip v1 signature : 4667070E<br>
AccurateRip v2 signature : 4BA34E3C<br>
-&gt;Accurately ripped (v2, confidence 5/5)<br>
Statistics<br>
Read error : 0<br>
Jitter error (maybe fixed) : 0<br>
Retry sector count : 0<br>
Damaged sector count : 0<br>
<br>
No errors occurred<br>
<br>
End of status report</div>
</div><br>
<b>Bonus*:</b><br>
<br>
1. Human Nature - 7" Remix (3:47)<br>
2. Wanna Be Startin' Somethin' - 7" Edit (4:20)<br>
<br>
*These are the actual versions replaced by the "fake edits". <b>Human Nature - 7" Remix</b> was only available on the QOBUZ Edition of "The Essential Michael Jackson". <b>Wanna Be Startin' Somethin' - 7" Edit</b> was included on several versions of the "King Of Pop" album. This one is from the UK Edition.<br>
<br>
<div class="bbCodeBlock bbCodeVfcHH HiddenContent">
<div class="attribution type">Hidden Content:</div>
<blockquote>You must either reply or click 'Like' to see the hidden information contained here.</blockquote>
</div>
<div class="messageTextEndMarker">&nbsp;</div>
</blockquote>
</article>]]></description>
                <author><![CDATA[RunawayLover]]></author>
                </item>

                </channel></rss>